HIERARCHY
ROOT Hips
{
	OFFSET 0.000000 0.000000 0.000000 
	CHANNELS 6 Xposition Yposition Zposition Zrotation Yrotation Xrotation
	JOINT LeftUpLeg
	{
		OFFSET 1.363060 -1.794630 0.839290 
		CHANNELS 3 Zrotation Yrotation Xrotation
		JOINT LeftLeg
		{
			OFFSET 2.448110 -6.726130 0.000000 
			CHANNELS 3 Zrotation Yrotation Xrotation
			JOINT LeftFoot
			{
				OFFSET 2.562200 -7.039590 0.000000 
				CHANNELS 3 Zrotation Yrotation Xrotation
				JOINT LeftToeBase
				{
					OFFSET 0.157640 -0.433110 2.322550 
					CHANNELS 3 Zrotation Yrotation Xrotation
					End Site
					{
						OFFSET 0.000000 0.000000 0.000000 
					}
				}
			}
		}
	}
	JOINT RightUpLeg
	{
		OFFSET -1.305520 -1.794630 0.839290 
		CHANNELS 3 Zrotation Yrotation Xrotation
		JOINT RightLeg
		{
			OFFSET -2.542530 -6.985550 0.000000 
			CHANNELS 3 Zrotation Yrotation Xrotation
			JOINT RightFoot
			{
				OFFSET -2.568260 -7.056230 0.000000 
				CHANNELS 3 Zrotation Yrotation Xrotation
				JOINT RightToeBase
				{
					OFFSET -0.164730 -0.452590 2.363150 
					CHANNELS 3 Zrotation Yrotation Xrotation
					End Site
					{
						OFFSET 0.000000 0.000000 0.000000 
					}
				}
			}
		}
	}
	JOINT Spine
	{
		OFFSET 0.028270 2.035590 -0.193380 
		CHANNELS 3 Zrotation Yrotation Xrotation
		JOINT Spine1
		{
			OFFSET 0.056720 2.048850 -0.042750 
			CHANNELS 3 Zrotation Yrotation Xrotation
			JOINT Neck1
			{
				OFFSET -0.054170 1.746240 0.172020 
				CHANNELS 3 Zrotation Yrotation Xrotation
				JOINT Head
				{
					OFFSET 0.104070 1.761360 -0.123970 
					CHANNELS 3 Zrotation Yrotation Xrotation
					End Site
					{
						OFFSET 0.000000 0.000000 0.000000 
					}
				}
			}
			JOINT LeftArm
			{
				OFFSET 3.362410 1.200890 -0.311210 
				CHANNELS 3 Zrotation Yrotation Xrotation
				JOINT LeftForeArm
				{
					OFFSET 4.983000 -0.000000 -0.000000 
					CHANNELS 3 Zrotation Yrotation Xrotation
					JOINT LeftHand
					{
						OFFSET 3.483560 -0.000000 -0.000000 
						CHANNELS 3 Zrotation Yrotation Xrotation
						JOINT LeftHandIndex1
						{
							OFFSET 0.715260 -0.000000 -0.000000 
							CHANNELS 3 Zrotation Yrotation Xrotation
							End Site
							{
								OFFSET 0.000000 0.000000 0.000000 
							}
						}
					}
				}
			}
			JOINT RightArm
			{
				OFFSET -3.136600 1.374050 -0.404650 
				CHANNELS 3 Zrotation Yrotation Xrotation
				JOINT RightForeArm
				{
					OFFSET -5.241900 -0.000000 -0.000000 
					CHANNELS 3 Zrotation Yrotation Xrotation
					JOINT RightHand
					{
						OFFSET -3.444170 -0.000000 -0.000000 
						CHANNELS 3 Zrotation Yrotation Xrotation
						JOINT RightHandIndex1
						{
							OFFSET -0.622530 -0.000000 -0.000000 
							CHANNELS 3 Zrotation Yrotation Xrotation
							End Site
							{
								OFFSET 0.000000 0.000000 0.000000 
							}
						}
					}
				}
			}
		}
	}
}
MOTION
Frames: 9
Frame Time: 0.041667
5.045682 20.959458 -0.264988 -7.462842 -2.202549 8.263518 -11.966929 2.820192 -7.502976 4.516813 13.498761 40.695375 3.383742 -8.366328 35.867473 0.294200 3.488000 9.640500 23.114912 8.726527 -9.230205 -6.629432 -15.418357 45.572741 -2.084953 -16.852297 36.560161 -0.865900 -5.933400 16.591200 3.439951 0.989936 -2.364005 2.230454 0.225639 -3.173490 8.097323 -7.485469 10.847944 4.663300 -3.641900 9.740200 -91.910346 29.207524 25.900777 33.573913 -46.554999 -12.407510 0.752539 2.010396 -18.329123 -7.125000 0.000000 0.000000 74.809421 -26.358005 32.980114 -35.092728 48.279688 -13.854861 -0.176937 -1.299675 -30.074879 7.125000 0.000000 0.000000 
5.047465 21.070547 -0.020117 -7.479544 -2.075604 8.034363 -11.977960 2.837411 -8.587091 4.485930 13.476768 40.553126 3.047487 -8.020331 33.778253 0.277200 3.386300 9.356200 23.073339 8.718085 -10.100171 -6.443681 -15.269614 44.967598 -1.668202 -16.728385 34.829212 -0.837400 -5.837400 16.313400 3.478294 0.950798 -2.330867 2.290497 0.204217 -3.269914 8.010294 -7.416087 10.959595 4.649500 -3.631900 9.738700 -91.950897 28.305490 26.295618 32.550231 -45.828127 -11.803192 0.741531 2.064065 -19.283948 -7.125000 0.000000 0.000000 75.464067 -25.257708 32.007883 -33.614764 47.304837 -13.020737 -0.222446 -1.390970 -30.825598 7.125000 0.000000 0.000000 
5.049249 21.169051 0.223764 -7.466696 -2.000753 7.874821 -12.040494 2.787528 -9.689755 4.408550 13.403437 40.210805 2.756252 -7.592294 31.820862 0.259600 3.278000 9.053800 22.961665 8.813022 -11.044501 -6.242357 -15.106406 44.323652 -1.327184 -16.464469 33.255863 -0.804600 -5.724800 15.987900 3.509692 0.937700 -2.310112 2.359334 0.196038 -3.374212 7.949802 -7.356675 11.008472 4.646500 -3.624100 9.708700 -91.949686 27.450070 26.739219 31.601286 -45.127632 -11.246533 0.733302 2.101437 -20.043521 -7.125000 0.000000 0.000000 75.994607 -24.197404 31.233269 -32.229692 46.352825 -12.258966 -0.275665 -1.471744 -31.555280 7.125000 0.000000 0.000000 
5.050835 21.254473 0.467446 -7.419762 -1.962570 7.745109 -12.147047 2.677173 -10.757765 4.287947 13.280041 39.678506 2.508700 -7.077393 30.028056 0.238500 3.142700 8.676200 22.785124 8.983105 -12.020781 -6.031768 -14.931609 43.647694 -1.059871 -16.114798 31.875830 -0.769400 -5.601000 15.630900 3.533774 0.938696 -2.284727 2.438021 0.195311 -3.465928 7.908971 -7.308882 11.020083 4.649300 -3.617700 9.673200 -91.909467 26.609706 27.223029 30.719989 -44.451709 -10.732137 0.732317 2.119842 -20.542921 -7.125000 0.000000 0.000000 76.416994 -23.154649 30.633027 -30.947228 45.434241 -11.567805 -0.331755 -1.540114 -32.168287 7.125000 0.000000 0.000000 
5.051925 21.326716 0.711029 -7.338189 -1.943383 7.611234 -12.286505 2.505091 -11.750863 4.129477 13.109717 38.975256 2.296449 -6.491969 28.391537 0.213100 2.972200 8.201300 22.552153 9.198680 -12.993928 -5.816832 -14.747118 42.942921 -0.856459 -15.733991 30.701268 -0.731600 -5.464800 15.239100 3.548435 0.945680 -2.250369 2.519325 0.198152 -3.551955 7.875524 -7.274214 11.005279 4.649100 -3.613600 9.635300 -91.823652 25.797208 27.748300 29.912183 -43.810115 -10.264151 0.739899 2.122068 -20.738190 -7.125000 0.000000 0.000000 76.752819 -22.150485 30.188089 -29.785644 44.569015 -10.950892 -0.386594 -1.594659 -32.584754 7.125000 0.000000 0.000000 
5.052321 21.385779 0.954513 -7.230760 -1.930063 7.454454 -12.440017 2.279021 -12.652103 3.939533 12.896501 38.123052 2.112775 -5.852435 26.903905 0.183100 2.755900 7.599900 22.278570 9.437873 -13.942574 -5.600952 -14.554046 42.209150 -0.698616 -15.386972 29.716662 -0.695100 -5.329700 14.851500 3.554324 0.951279 -2.205465 2.598102 0.200573 -3.636637 7.844128 -7.250752 10.981795 4.643800 -3.611300 9.603100 -91.694797 25.021512 28.304401 29.187272 -43.215760 -9.847644 0.756134 2.110682 -20.594394 -7.125000 0.000000 0.000000 77.021154 -21.204635 29.874167 -28.761603 43.777261 -10.411008 -0.436109 -1.634769 -32.746556 7.125000 0.000000 0.000000 
5.051925 21.431958 1.197601 -7.108450 -1.908038 7.264503 -12.588657 1.998749 -13.457721 3.724730 12.644500 37.144123 1.952714 -5.178358 25.564098 0.151700 2.510000 6.917200 21.981657 9.681093 -14.855629 -5.385709 -14.352696 41.444226 -0.571611 -15.111161 28.899456 -0.660300 -5.197000 14.471200 3.553385 0.949078 -2.146442 2.671161 0.199175 -3.716020 7.806469 -7.239303 10.960418 4.627900 -3.611100 9.583500 -91.528829 24.273508 28.878025 28.538050 -42.667846 -9.478606 0.780785 2.089168 -20.102324 -7.125000 0.000000 0.000000 77.236381 -20.318687 29.674441 -27.883792 43.074085 -9.948113 -0.476925 -1.661648 -32.643648 7.125000 0.000000 0.000000 
5.051330 21.465850 1.441383 -6.983229 -1.887215 7.036494 -12.722313 1.675939 -14.163198 3.490667 12.356757 36.055889 1.811205 -4.481595 24.359680 0.122100 2.252200 6.203200 21.672719 9.924002 -15.717843 -5.170530 -14.141760 40.643895 -0.462642 -14.923914 28.216877 -0.627400 -5.068400 14.103700 3.547100 0.943296 -2.080830 2.733443 0.195783 -3.806866 7.763104 -7.236388 10.951732 4.605000 -3.613400 9.576000 -91.336219 23.588069 29.456286 27.979012 -42.184315 -9.164404 0.809920 2.063013 -19.287361 -7.125000 0.000000 0.000000 77.399058 -19.532142 29.588713 -27.158759 42.474327 -9.562770 -0.506882 -1.677090 -32.319792 7.125000 0.000000 0.000000 
5.050538 21.487751 1.685065 -6.862131 -1.860129 6.779927 -12.829870 1.308041 -14.787751 3.241855 12.035937 34.872486 1.686516 -3.770525 23.298198 0.097600 2.014700 5.546300 21.360273 10.161871 -16.539698 -4.955952 -13.920702 39.806114 -0.360720 -14.843903 27.642703 -0.596100 -4.942600 13.744900 3.536599 0.935259 -2.014777 2.783196 0.190850 -3.919426 7.717656 -7.241913 10.955957 4.577900 -3.618600 9.578100 -91.116398 22.981635 30.035270 27.505687 -41.764485 -8.900887 0.844367 2.031367 -18.186952 -7.125000 0.000000 0.000000 77.513585 -18.863747 29.617443 -26.596503 41.994697 -9.257272 -0.524641 -1.682948 -31.859979 7.125000 0.000000 0.000000 
